<?xml version="1.0" encoding="utf-8"?>
<!-- Generator: Adobe Illustrator 25.2.3, SVG Export Plug-In . SVG Version: 6.00 Build 0)  -->
<svg version="1.1" id="Warstwa_1" xmlns="http://www.w3.org/2000/svg" xmlns:xlink="http://www.w3.org/1999/xlink" x="0px" y="0px"
	 viewBox="0 0 133.7 98.4" style="enable-background:new 0 0 133.7 98.4;" xml:space="preserve">
<style type="text/css">
	.st0{fill:none;stroke:#000000;stroke-width:2;stroke-linecap:round;stroke-linejoin:round;}
</style>
<g id="Group_1168" transform="translate(-317.028 -2868)">
	<g id="Group_1167" transform="translate(318.028 2869)">
		<g id="Group_1166" transform="translate(139.816 25.317)">
			<g id="Group_1164" transform="translate(0 55.659)">
				<circle id="Ellipse_104" class="st0" cx="-129.8" cy="-15.2" r="3.8"/>
				<path id="Path_1739" class="st0" d="M-90.7-22.9c-2.3,1.8-4.8,3.3-7.4,4.6"/>
				<path id="Path_1740" class="st0" d="M-106-15.2c-1.6,0.4-3.1,0.7-4.7,0.8l-13.9,8c-4.9,2.8-11.1,1.1-13.9-3.7
					c-2.8-4.9-1.1-11.1,3.7-13.9c4.8-2.8,11-1.1,13.8,3.7c0.7,1.2,1.1,2.4,1.3,3.8l0,0l12.3-7.1"/>
			</g>
			<line id="Line_583" class="st0" x1="-51.4" y1="2.1" x2="-65.1" y2="25.8"/>
			<line id="Line_584" class="st0" x1="-37.2" y1="10.3" x2="-50.9" y2="34"/>
			<line id="Line_585" class="st0" x1="-58.6" y1="-2.1" x2="-72.3" y2="21.7"/>
			<line id="Line_586" class="st0" x1="-44.3" y1="6.2" x2="-58" y2="29.9"/>
			<line id="Line_587" class="st0" x1="-23" y1="18.5" x2="-40.5" y2="48.8"/>
			<line id="Line_588" class="st0" x1="-72.8" y1="-10.3" x2="-90.3" y2="20.1"/>
			<line id="Line_589" class="st0" x1="-65.7" y1="-6.2" x2="-83.2" y2="24.2"/>
			<line id="Line_590" class="st0" x1="-30.1" y1="14.4" x2="-43.8" y2="38.1"/>
			<line id="Line_591" class="st0" x1="-68.8" y1="32.1" x2="-69" y2="32.4"/>
			<line id="Line_592" class="st0" x1="-54.6" y1="40.3" x2="-54.8" y2="40.6"/>
			<line id="Line_593" class="st0" x1="-75.9" y1="28" x2="-76.1" y2="28.3"/>
			<line id="Line_594" class="st0" x1="-61.7" y1="36.2" x2="-61.9" y2="36.5"/>
			<line id="Line_595" class="st0" x1="-47.4" y1="44.4" x2="-47.6" y2="44.7"/>
			<g id="Group_1165" transform="translate(32.448 25.808)">
				<path id="Path_1741" class="st0" d="M-126.6,25c-1.3,0-2.7,0.3-3.9,0.8l0,0v-51.1c-8.9,10.2-12.5,31.6-6.3,44.4v16.1
					c0,5.6,4.5,10.1,10.1,10.1s10.1-4.5,10.1-10.1C-116.5,29.6-121,25.1-126.6,25L-126.6,25L-126.6,25z"/>
				<circle id="Ellipse_105" class="st0" cx="-126.6" cy="35.2" r="3.8"/>
			</g>
			<path id="Path_1742" class="st0" d="M-98.1,12.3l21.7-37.6l68.2,39.4l-28.7,49.8l-61.2-35.3"/>
		</g>
	</g>
</g>
</svg>
