<?xml version="1.0" encoding="utf-8"?>
<!-- Generator: Adobe Illustrator 25.2.3, SVG Export Plug-In . SVG Version: 6.00 Build 0)  -->
<svg version="1.1" id="Warstwa_1" xmlns="http://www.w3.org/2000/svg" xmlns:xlink="http://www.w3.org/1999/xlink" x="0px" y="0px"
	 viewBox="0 0 159 130.1" style="enable-background:new 0 0 159 130.1;" xml:space="preserve">
<style type="text/css">
	.st0{fill:none;stroke:#000000;stroke-width:2;stroke-linecap:round;stroke-linejoin:round;}
</style>
<g id="Group_465" transform="translate(-181.714 -664.072)">
	<g id="Group_1157" transform="translate(182.731 665.072)">
		<path id="Rectangle_301" class="st0" d="M157,4v97.9c0,2.2-1.8,4-4,4H49.1c-2.2,0-4-1.8-4-4V4c0-2.2,1.8-4,4-4H153
			C155.2,0,157,1.8,157,4z"/>
		<rect id="Rectangle_302" x="56.1" y="11" class="st0" width="90" height="65.7"/>
		<path id="Path_625" class="st0" d="M45.1,15.5L5.7,25c-4,1-6.4,4.9-5.5,8.9c0,0,0,0,0,0l21.3,88.6c1,4,4.9,6.4,8.9,5.5
			c0,0,0,0,0,0l91.6-22"/>
		<path id="Path_626" class="st0" d="M45.1,26.8l-33.3,8l15.4,63.9l18-4.3"/>
		<g id="Group_464" transform="translate(77.068 21.276)">
			<path id="Path_619" class="st0" d="M0,0h48v46.3l-8-7.4l-8,7.4l-8-7.4l-8,7.4l-8-7.4l-8,7.4L0,0z"/>
			<line id="Line_574" class="st0" x1="10.9" y1="9" x2="25" y2="9"/>
			<line id="Line_575" class="st0" x1="10.9" y1="18.5" x2="25" y2="18.5"/>
			<line id="Line_576" class="st0" x1="10.9" y1="28.1" x2="25" y2="28.1"/>
			<line id="Line_577" class="st0" x1="34.3" y1="9" x2="37.1" y2="9"/>
			<line id="Line_578" class="st0" x1="34.3" y1="18.5" x2="37.1" y2="18.5"/>
			<line id="Line_579" class="st0" x1="34.3" y1="28.1" x2="37.1" y2="28.1"/>
		</g>
	</g>
</g>
</svg>
