<svg xmlns="http://www.w3.org/2000/svg" width="255.311" height="46.708" viewBox="0 0 255.311 46.708">
  <g id="Group_2231" data-name="Group 2231" transform="translate(-231.764 -383.544)">
    <g id="Group_2224" data-name="Group 2224" transform="translate(265.309 387.308)">
      <path id="Path_808" data-name="Path 808" d="M591.924,394.982h3.638v21.905c0,.822.249,1.593,1.222,1.593a5.63,5.63,0,0,0,1.468-.224l.7,3.276a9.7,9.7,0,0,1-2.9.442c-2.611,0-4.128-1.5-4.128-4.927V394.982Z" transform="translate(-498.689 -394.72)" fill="#161615"/>
      <path id="Path_809" data-name="Path 809" d="M618.567,394.982H622.2v21.905c0,.822.248,1.593,1.222,1.593a5.677,5.677,0,0,0,1.47-.224l.7,3.276a9.728,9.728,0,0,1-2.9.442c-2.608,0-4.125-1.5-4.125-4.927V394.982Z" transform="translate(-515.953 -394.72)" fill="#161615"/>
      <path id="Path_810" data-name="Path 810" d="M442.815,432.374a9.119,9.119,0,0,0,5.36,1.636c1.958,0,3.952-.412,3.952-2.118a1.369,1.369,0,0,0-.283-.856c-1.466-1.784-7.794-.557-9.821-4.056a5.277,5.277,0,0,1-.63-2.638c0-3.8,3.009-5.653,6.783-5.653A15.06,15.06,0,0,1,454.9,420.4l-1.223,3.164c-2.343-.935-3.263-1.338-5.36-1.338-2.167,0-3.109.743-3.109,1.9a1.487,1.487,0,0,0,.206.815c1.155,2.01,6.993.9,9.441,3.5a4.4,4.4,0,0,1,1.082,3.16c0,4.391-3.636,5.952-7.657,5.952a12.3,12.3,0,0,1-6.932-2.006Z" transform="translate(-401.117 -410.083)" fill="#161615"/>
      <path id="Path_811" data-name="Path 811" d="M388.782,430.589V420.066h3.633V430.4c0,3.2,1.461,4.5,4.464,4.5s4.461-1.228,4.461-4.426V420.066h3.638v10.523c0,5.616-3.485,7.848-8.172,7.848-4.718,0-8.024-2.268-8.024-7.848" transform="translate(-367.055 -410.974)" fill="#161615"/>
      <path id="Path_812" data-name="Path 812" d="M346.718,417.659a6.578,6.578,0,0,1-1.61.223,3.634,3.634,0,0,1-2.447-.967c-1.4-1.2-4.109-7.014-4.109-7.014a7.406,7.406,0,0,0,6.258-7.465,8.277,8.277,0,0,0-5.815-7.752,15.339,15.339,0,0,0-4-.446H327.06V421.3h3.706V410.718h3.91s3.741,7.541,5.678,9.131a6.466,6.466,0,0,0,4.232,1.634,8.032,8.032,0,0,0,2.9-.479Zm-12.362-10.473h-3.591V397.9h5.443a4.487,4.487,0,0,1,3.428,1.347,4.8,4.8,0,0,1,1.293,3.262,4.391,4.391,0,0,1-2.936,4.309,12.644,12.644,0,0,1-3.636.368" transform="translate(-327.06 -394.238)" fill="#161615"/>
      <path id="Path_813" data-name="Path 813" d="M490.164,432.374a9.128,9.128,0,0,0,5.36,1.636c1.957,0,3.951-.412,3.951-2.118a1.384,1.384,0,0,0-.28-.856c-1.468-1.784-7.8-.557-9.823-4.056a5.266,5.266,0,0,1-.63-2.638c0-3.8,3.006-5.653,6.782-5.653a15.075,15.075,0,0,1,6.724,1.709l-1.225,3.164c-2.343-.935-3.262-1.338-5.359-1.338-2.167,0-3.11.743-3.11,1.9a1.452,1.452,0,0,0,.209.815c1.155,2.01,6.992.9,9.438,3.5a4.4,4.4,0,0,1,1.086,3.16c0,4.391-3.638,5.952-7.657,5.952a12.294,12.294,0,0,1-6.932-2.006Z" transform="translate(-431.8 -410.083)" fill="#161615"/>
      <path id="Path_814" data-name="Path 814" d="M535.5,428.506c0-6.133,4.094-9.816,9.754-9.816,3.847,0,7.2,1.747,7.2,5.466,0,3.606-3.149,5.727-9.092,5.727a33.065,33.065,0,0,1-3.881-.186c.178,2.824,2.38,4.314,5.666,4.314a12.666,12.666,0,0,0,5.767-1.375l1.156,3.164a15.1,15.1,0,0,1-7.343,1.745c-5.629,0-9.231-3.535-9.231-9.039m7.659-2.044c4.332,0,5.487-1.265,5.487-2.42,0-1.189-1.361-1.817-3.356-1.817-2.9,0-5.1,1.375-5.662,4.052a28.872,28.872,0,0,0,3.531.186" transform="translate(-462.129 -410.083)" fill="#161615"/>
    </g>
    <path id="Path_815" data-name="Path 815" d="M674.774,394.895h3.7v11.221H691.13V394.895h3.708v26.859H691.13v-12.1H678.477v12.1h-3.7Z" transform="translate(-287.066 -7.355)" fill="#161615"/>
    <g id="Group_2225" data-name="Group 2225" transform="translate(231.764 383.544)">
      <path id="Path_816" data-name="Path 816" d="M738.756,428.133a9.438,9.438,0,1,1,9.4,9.412,9.159,9.159,0,0,1-9.4-9.412m15.068,0c0-3.382-2.24-5.909-5.6-5.909a5.9,5.9,0,1,0,5.6,5.909" transform="translate(-560.289 -406.318)" fill="#161615"/>
      <path id="Path_817" data-name="Path 817" d="M917.1,432.374a9.116,9.116,0,0,0,5.357,1.636c1.961,0,3.955-.412,3.955-2.118a1.347,1.347,0,0,0-.283-.856c-1.465-1.784-7.8-.557-9.824-4.056a5.3,5.3,0,0,1-.63-2.638c0-3.8,3.01-5.653,6.781-5.653a15.054,15.054,0,0,1,6.725,1.709l-1.222,3.164c-2.345-.935-3.262-1.338-5.362-1.338-2.168,0-3.112.743-3.112,1.9a1.462,1.462,0,0,0,.209.815c1.157,2.01,7,.9,9.443,3.5a4.4,4.4,0,0,1,1.08,3.16c0,4.391-3.633,5.952-7.654,5.952a12.278,12.278,0,0,1-6.929-2.006Z" transform="translate(-674.902 -406.318)" fill="#161615"/>
      <path id="Path_818" data-name="Path 818" d="M808.17,403.365a9.111,9.111,0,0,0-5.7,1.88V395.04h-3.61v24a15.957,15.957,0,0,0,9.239,2.849c5.738,0,9.309-3.872,9.309-9.081,0-5.241-3.61-9.443-9.237-9.443m-.072,14.992a10,10,0,0,1-5.425-1.474v-4.075c0-3.346,2.071-5.909,5.5-5.909,3.355,0,5.43,2.527,5.43,5.909a5.165,5.165,0,0,1-5.5,5.549" transform="translate(-599.235 -390.993)" fill="#161615"/>
      <path id="Path_819" data-name="Path 819" d="M867.222,403.365a9.127,9.127,0,0,0-5.7,1.876v-10.2h-3.607v24a15.947,15.947,0,0,0,9.236,2.849c5.733,0,9.309-3.872,9.309-9.081,0-5.241-3.612-9.443-9.238-9.443m-.071,14.992a8.908,8.908,0,0,1-5.427-1.474v-4.075c0-3.346,2.072-5.909,5.5-5.909,3.355,0,5.426,2.527,5.426,5.909a5.161,5.161,0,0,1-5.5,5.549" transform="translate(-637.503 -390.993)" fill="#161615"/>
      <path id="Path_820" data-name="Path 820" d="M255.35,400.88c0,9.574-5.28,17.335-11.792,17.335s-11.794-7.761-11.794-17.335,5.279-17.336,11.794-17.336S255.35,391.3,255.35,400.88" transform="translate(-231.764 -383.544)" fill="#c80010"/>
      <path id="Path_821" data-name="Path 821" d="M248.985,395.825a4.916,4.916,0,0,0,1.917-.169c.471-.11,1.008-.3,1.476-.459.5.421,1.6,1.5,2.115,1.962.058.058.171.173.308.307-.135.035-.273.073-.411.112h0c-.315.093-.561.171-.832.263.175.108.379.245.379.245.342-.1.746-.22,1.166-.329.088.081.176.159.256.228l.013.012c.041.035.082.069.117.1h.005a5.858,5.858,0,0,0,2.7,1.141,5.366,5.366,0,0,0,2.711-.353c.524-.191.966-.547.781-1.165-.2-.666-1.218-.8-1.786-.862a11.728,11.728,0,0,0-3.237.2c-.119.02-.242.043-.366.066-.14-.124-.286-.249-.43-.36-.583-.489-1.847-1.57-2.431-2.028.183-.076.4-.161.607-.242l.14-.051c.155-.056.3-.1.446-.153a5.829,5.829,0,0,0,2.507,1.244,3.306,3.306,0,0,0,2.024-.326.88.88,0,0,0,.584-1.071c-.149-.613-.91-.736-1.333-.793a7.251,7.251,0,0,0-2.418.18l-.215.049h0c-.117.024-.237.052-.364.084l-.151-.126c-1.229-.989-1.424-1.725-1.276-2.4.044-.2-.476.39-.514,1.008a2.146,2.146,0,0,0,.768,1.811c.02.02.046.042.069.065-.1.034-.2.075-.3.113h0l-.111.049c-.239.1-.495.205-.773.332a4.871,4.871,0,0,0-3.113-1.123c-.535.034-2.921.551-2.1,1.845a1.787,1.787,0,0,0,1.073.6m9.51,1.576c.6.046,1.213.021,1.592.544a.768.768,0,0,1-.027.91l-.126-.009a6.054,6.054,0,0,1-1.035-.2,6.364,6.364,0,0,1-1.935-.952h0c-.088-.068-.185-.147-.286-.237a9.429,9.429,0,0,1,1.818-.056m-2.313-3.532a5.516,5.516,0,0,1,1.177-.026c.447.039.906.018,1.192.5a.836.836,0,0,1-.02.837l-.093-.01a3.965,3.965,0,0,1-.774-.183,5.374,5.374,0,0,1-1.642-.849c-.063-.046-.147-.114-.239-.187.147-.035.28-.062.4-.082m-7.063-.088a3.008,3.008,0,0,1,.364.027,4.708,4.708,0,0,1,1.261.347,6.264,6.264,0,0,1,1.34.816,7,7,0,0,1-1.439.347c-.52.051-1.411.059-1.681-.656a.929.929,0,0,1,.155-.881" transform="translate(-242.117 -388.432)" fill="#faf7f6"/>
      <path id="Path_822" data-name="Path 822" d="M259.451,417.057a3.606,3.606,0,0,0-2.032-.841l-.222.627a2.467,2.467,0,0,1,1.991,2.184,1.682,1.682,0,0,1-1.095,1.959,1.732,1.732,0,0,1-2.049-1.689,6.474,6.474,0,0,1,.51-2.447l.324-.846c.282-.735.565-1.468.848-2.206.088-.227.315-.782.329-.82.2-.5.484-1.147.927-1.141a1.467,1.467,0,0,1,.718.245l.39-.663a2.114,2.114,0,0,0-.891-.258,2.379,2.379,0,0,0-2,.858,2.561,2.561,0,0,0-.4.59,19.293,19.293,0,0,0-.9,2.245c-.134.346-.293.74-.452,1.21h-1.89a7.315,7.315,0,0,0-2.572-6.937,6.867,6.867,0,0,0-4.475-1.737c-.031,0-.08,0-.142.008a6.07,6.07,0,0,0-1.83.357,1.561,1.561,0,0,0-1.049.821c-.217.6.613.991,1.04,1.126a6.883,6.883,0,0,0,2.974.119,10.676,10.676,0,0,0,1.245-.215,2.358,2.358,0,0,0-.351-.228,5.872,5.872,0,0,1-1.862-.005,2.529,2.529,0,0,1-1.313-.514.773.773,0,0,1-.235-.406.579.579,0,0,1,.069-.4.808.808,0,0,1,.124-.152l.022-.015a.273.273,0,0,0,.04-.005h.013a7.394,7.394,0,0,1,3.787,1.371l.327.216c.022.016.046.031.068.048a6.64,6.64,0,0,1,2.41,3.1,5.83,5.83,0,0,1-1.835,7.031,6.325,6.325,0,0,0,.541.678,6.32,6.32,0,0,0,2.877-3.5h1.739a4.259,4.259,0,0,0-.285,3.272c.9,2.132,4.214,1.861,5.116.063a2.7,2.7,0,0,0-.544-3.092" transform="translate(-239.335 -398.996)" fill="#faf7f6"/>
      <path id="Path_823" data-name="Path 823" d="M256.262,454.318a4.942,4.942,0,0,0-1.916.171c-.473.109-1.008.3-1.476.459-.5-.419-1.6-1.5-2.115-1.963-.057-.059-.171-.171-.309-.307.136-.036.273-.075.412-.111v0c.318-.091.52-.154.794-.246-.217-.132-.383-.255-.383-.255-.332.1-.7.215-1.125.323-.088-.081-.175-.159-.256-.23a.029.029,0,0,0-.013-.01c-.041-.036-.081-.07-.117-.1h0a5.874,5.874,0,0,0-2.7-1.139,5.347,5.347,0,0,0-2.708.35c-.523.193-.967.549-.783,1.167.2.667,1.22.8,1.786.863a11.877,11.877,0,0,0,3.236-.2l.366-.067c.141.124.287.246.431.358.583.49,1.849,1.571,2.433,2.03-.185.076-.4.161-.609.242-.043.015-.089.031-.14.051-.154.055-.3.105-.446.151a5.836,5.836,0,0,0-2.508-1.243,3.288,3.288,0,0,0-2.025.326.879.879,0,0,0-.583,1.07c.149.613.912.736,1.334.794a7.286,7.286,0,0,0,2.42-.181l.212-.049c.117-.022.237-.051.364-.084.09.075.151.124.151.124,1.229.99,1.422,1.725,1.274,2.4-.042.2.478-.393.517-1.009a2.162,2.162,0,0,0-.769-1.813c-.02-.021-.046-.041-.068-.064.1-.035.2-.075.3-.115h0c.034-.013.071-.032.108-.046.241-.1.495-.208.774-.334a4.887,4.887,0,0,0,3.113,1.123c.537-.035,2.921-.55,2.1-1.845a1.775,1.775,0,0,0-1.073-.6m-9.508-1.577c-.6-.044-1.215-.02-1.595-.544a.763.763,0,0,1,.029-.91c.041,0,.081.007.124.01a6.157,6.157,0,0,1,1.036.2,6.414,6.414,0,0,1,1.935.952h0c.088.07.185.152.285.24a9.325,9.325,0,0,1-1.815.054m2.313,3.533a5.577,5.577,0,0,1-1.179.027c-.447-.04-.907-.021-1.191-.5a.838.838,0,0,1,.02-.837l.093.01a3.712,3.712,0,0,1,.774.183,5.3,5.3,0,0,1,1.642.849c.062.045.149.111.24.187-.147.033-.281.063-.4.081m7.061.088c-.122,0-.244-.013-.364-.025a4.818,4.818,0,0,1-1.261-.349,6.273,6.273,0,0,1-1.34-.815,7.158,7.158,0,0,1,1.439-.346c.522-.053,1.411-.06,1.682.654a.933.933,0,0,1-.156.881" transform="translate(-239.381 -427.161)" fill="#faf7f6"/>
      <path id="Path_824" data-name="Path 824" d="M252.587,390.257c-2.1-3.084-4.858-4.78-7.775-4.78s-5.68,1.7-7.776,4.78a22.8,22.8,0,0,0,0,23.751c2.1,3.082,4.858,4.779,7.776,4.779s5.679-1.7,7.775-4.779a22.8,22.8,0,0,0,0-23.751m-.344,23.515c-2.017,2.965-4.656,4.6-7.431,4.6s-5.416-1.631-7.432-4.6a22.39,22.39,0,0,1,0-23.281c2.016-2.964,4.655-4.6,7.432-4.6s5.414,1.632,7.431,4.6a22.39,22.39,0,0,1,0,23.281" transform="translate(-233.019 -384.797)" fill="#faf7f6"/>
      <path id="Path_825" data-name="Path 825" d="M255.169,429.609a8.1,8.1,0,0,0-2.533.18c-.575.106-.954.186-1.48.325a2.7,2.7,0,0,0,.373.244,7.834,7.834,0,0,1,1.446-.214c.688-.051,1.866-.062,2.222.69a.829.829,0,0,1-.2.925c-.161,0-.324-.014-.483-.029a7.852,7.852,0,0,1-1.667-.365,10.277,10.277,0,0,1-1.911-.849h0l-.188-.112a13.469,13.469,0,0,1-3.348-2.845,12.581,12.581,0,0,1-1.81-3.033,3.556,3.556,0,0,0,2.491-2.039c.615-1.954-1-3.621-2.8-4.094-1.988-.522-4.38.078-5.167,1.979a2.865,2.865,0,0,0,1.368,3.547l.5-1.2a2.242,2.242,0,0,1-.878-2.547c.612-1.482,2.417-1.476,3.64-.945a2.976,2.976,0,0,1,1.842,3.506,1.985,1.985,0,0,1-1.142,1.23,2.619,2.619,0,0,1-1.581-.079c.485-1.27.865-2.276,1.346-3.546a3.846,3.846,0,0,0-1.19-.607c-.008.015-.944,2.48-1.459,3.826q-.473,1.237-.945,2.472c-.081.216-.161.433-.249.646-.2.5-.485,1.145-.925,1.142a1.525,1.525,0,0,1-.72-.241l-.39.661a2.152,2.152,0,0,0,.891.257c1.266.035,2.1-.648,2.659-2.051.234-.58.451-1.167.673-1.752.144.017.288.027.438.032a12.914,12.914,0,0,0,2.745,4.144,14.309,14.309,0,0,0,2.562,1.986l.2.12h0a8.05,8.05,0,0,0,4.316,1.2c.71-.034,3.862-.578,2.774-1.94a2.576,2.576,0,0,0-1.418-.63" transform="translate(-236.665 -406.01)" fill="#faf7f6"/>
      <path id="Path_826" data-name="Path 826" d="M853.459,502.491l1.259-1.181a3.509,3.509,0,0,0,1.431-2.506,1.969,1.969,0,0,0-2.067-2.092,2.111,2.111,0,0,0-2.165,1.825l-.046.334.975.177.047-.367a1.149,1.149,0,0,1,1.188-.994,1.02,1.02,0,0,1,1.085,1.135,2.683,2.683,0,0,1-1.131,1.8l-2.224,2.081v.758h4.472v-.966Z" transform="translate(-633.548 -456.876)" fill="#161615"/>
      <path id="Path_827" data-name="Path 827" d="M830.673,499.311a2.652,2.652,0,0,0-1.062.2l.085-1.476h2.757v-.966h-3.675l-.21,3.568.707.391.184-.245a1.431,1.431,0,0,1,1.188-.518,1.229,1.229,0,0,1,1.279,1.261,1.356,1.356,0,0,1-2.687.208l-.052-.4-.972.266.049.311a2.264,2.264,0,0,0,2.307,1.9,2.217,2.217,0,0,0,2.338-2.3,2.175,2.175,0,0,0-2.236-2.211" transform="translate(-618.258 -457.11)" fill="#161615"/>
      <path id="Path_828" data-name="Path 828" d="M805.493,499.333a1.365,1.365,0,0,1,2.726,0,1.368,1.368,0,0,1-2.726,0m1.371-2.261a2.266,2.266,0,0,0-2.354,2.278,2.132,2.132,0,0,0,.629,1.534,2.276,2.276,0,0,0,1.7.651,2.634,2.634,0,0,0,.647-.087,7.877,7.877,0,0,1-1.359,1.626l-.692.615h1.419l.1-.094a6.729,6.729,0,0,0,2.25-4.237,2.237,2.237,0,0,0-2.338-2.287" transform="translate(-602.897 -457.109)" fill="#161615"/>
      <path id="Path_829" data-name="Path 829" d="M788.776,497.421c-.006.521-.228.565-.476.565h-.352v.955l.343.011a1.532,1.532,0,0,0,.485-.065v4.8h.991v-6.618h-.987Z" transform="translate(-592.165 -457.11)" fill="#161615"/>
    </g>
    <path id="Path_830" data-name="Path 830" d="M749.814,497.073v6.618h4.421v-.974h-3.43v-1.865h3.362v-.966h-3.362v-1.839h3.43v-.974Z" transform="translate(-335.691 -73.565)" fill="#161615"/>
    <g id="Group_2226" data-name="Group 2226" transform="translate(403.749 423.423)">
      <path id="Path_831" data-name="Path 831" d="M725.711,501.344a2.289,2.289,0,0,1-2.05,1.284,2.4,2.4,0,0,1,0-4.8,2.278,2.278,0,0,1,2.044,1.263l.164.316.871-.465-.155-.307a3.259,3.259,0,0,0-2.924-1.8,3.394,3.394,0,0,0,0,6.786,3.274,3.274,0,0,0,2.942-1.825l.156-.31-.888-.458Z" transform="translate(-720.343 -496.833)" fill="#161615"/>
    </g>
    <path id="Path_832" data-name="Path 832" d="M698.181,497.073V501.8l-3.326-4.724h-.865v6.618h.991v-4.715l3.318,4.715h.873v-6.618Z" transform="translate(-299.517 -73.565)" fill="#161615"/>
    <rect id="Rectangle_730" data-name="Rectangle 730" width="0.991" height="6.618" transform="translate(389.066 423.507)" fill="#161615"/>
    <g id="Group_2227" data-name="Group 2227" transform="translate(379.872 423.406)">
      <path id="Path_833" data-name="Path 833" d="M655.62,499.812l-.042.171.042-.171-.272-.068-.234-.061c-.991-.254-1.32-.426-1.32-.942,0-.477.457-.983,1.3-.983a1.321,1.321,0,0,1,1.38,1.048l.1.326.933-.27-.1-.341a2.273,2.273,0,0,0-2.314-1.737,2.1,2.1,0,0,0-2.3,1.949c0,1.351,1.2,1.661,2.068,1.887l.188.05c.114.03.231.058.347.086.937.224,1.249.382,1.249.874,0,.608-.558,1-1.422,1a1.6,1.6,0,0,1-1.664-1.129l-.095-.335-.954.259.091.339a2.549,2.549,0,0,0,2.621,1.84c1.448,0,2.422-.793,2.422-1.974,0-1.326-1.17-1.61-2.025-1.818" transform="translate(-652.511 -496.784)" fill="#161615"/>
    </g>
    <path id="Path_834" data-name="Path 834" d="M615.046,497.073V501.8l-3.326-4.724h-.865v6.618h.992v-4.715l3.317,4.715h.873v-6.618Z" transform="translate(-245.647 -73.565)" fill="#161615"/>
    <g id="Group_2228" data-name="Group 2228" transform="translate(344.51 423.423)">
      <path id="Path_835" data-name="Path 835" d="M583.692,502.628a2.4,2.4,0,1,1,2.326-2.4,2.34,2.34,0,0,1-2.326,2.4m.008-5.8a3.394,3.394,0,1,0,3.309,3.393,3.324,3.324,0,0,0-3.309-3.393" transform="translate(-570.406 -496.832)" fill="#161615"/>
      <path id="Path_836" data-name="Path 836" d="M557.423,501.344a2.289,2.289,0,0,1-2.051,1.284,2.4,2.4,0,0,1,0-4.8,2.278,2.278,0,0,1,2.045,1.263l.164.315.871-.465-.155-.307a3.258,3.258,0,0,0-2.925-1.8,3.394,3.394,0,0,0,0,6.786,3.275,3.275,0,0,0,2.943-1.825l.156-.31-.888-.458Z" transform="translate(-552.055 -496.833)" fill="#161615"/>
    </g>
    <rect id="Rectangle_731" data-name="Rectangle 731" width="0.992" height="6.618" transform="translate(339.424 423.507)" fill="#161615"/>
    <path id="Path_837" data-name="Path 837" d="M498.956,497.073v2.813h-3.174v-2.813h-.991v6.618h.991v-2.822h3.174v2.822h.991v-6.618Z" transform="translate(-170.439 -73.565)" fill="#161615"/>
    <g id="Group_2229" data-name="Group 2229" transform="translate(315.166 423.406)">
      <path id="Path_838" data-name="Path 838" d="M471.8,499.812h0l-.273-.068-.233-.061c-.991-.254-1.32-.426-1.32-.942,0-.477.457-.983,1.3-.983a1.322,1.322,0,0,1,1.38,1.048l.1.326.933-.27-.1-.341a2.274,2.274,0,0,0-2.314-1.737,2.1,2.1,0,0,0-2.3,1.949c0,1.351,1.2,1.661,2.068,1.887l.188.05c.113.03.228.057.347.086.937.224,1.249.382,1.249.874,0,.608-.558,1-1.422,1a1.6,1.6,0,0,1-1.664-1.129l-.1-.335-.954.259.092.339a2.55,2.55,0,0,0,2.621,1.84c1.449,0,2.422-.793,2.422-1.974,0-1.325-1.17-1.61-2.025-1.818" transform="translate(-468.694 -496.784)" fill="#161615"/>
    </g>
    <rect id="Rectangle_732" data-name="Rectangle 732" width="0.991" height="6.618" transform="translate(310.193 423.507)" fill="#161615"/>
    <path id="Path_839" data-name="Path 839" d="M428.5,497.073v.966h2.137v5.652h.991v-5.652h2.146v-.966Z" transform="translate(-127.485 -73.565)" fill="#161615"/>
    <rect id="Rectangle_733" data-name="Rectangle 733" width="0.991" height="6.618" transform="translate(296.127 423.507)" fill="#161615"/>
    <g id="Group_2230" data-name="Group 2230" transform="translate(278.791 423.507)">
      <path id="Path_840" data-name="Path 840" d="M392.8,500.13h-1.49v-2.092h1.49c.747,0,1.211.4,1.211,1.05s-.453,1.042-1.211,1.042m2.2-1.042a2.015,2.015,0,0,0-2.185-2.016h-2.5v6.618h.991V501.1h1.441l1.419,2.594h1.137l-1.538-2.765A1.9,1.9,0,0,0,395,499.088" transform="translate(-381.534 -497.072)" fill="#161615"/>
      <path id="Path_841" data-name="Path 841" d="M367.909,502.725h-1.557v-1.906h1.557c.186,0,1.11.046,1.11.949s-.924.957-1.11.957m-1.557-2.856v-1.83h1.481c.483,0,1.059.159,1.059.915,0,.607-.356.915-1.059.915Zm2.954.439a1.739,1.739,0,0,0,.568-1.371,1.863,1.863,0,0,0-2.042-1.864H365.36v6.617h2.557a1.911,1.911,0,0,0,2.092-1.915,1.75,1.75,0,0,0-.7-1.468" transform="translate(-365.36 -497.073)" fill="#161615"/>
    </g>
    <path id="Path_842" data-name="Path 842" d="M324.406,498.658l1.133,2.646h-2.226Zm-.4-1.586-2.751,6.618h1.074l.592-1.411h3.032l.608,1.411h1.079l-2.846-6.618Z" transform="translate(-57.989 -73.565)" fill="#161615"/>
  </g>
</svg>
