<?xml version="1.0" encoding="utf-8"?>
<!-- Generator: Adobe Illustrator 25.4.1, SVG Export Plug-In . SVG Version: 6.00 Build 0)  -->
<svg version="1.1" id="Warstwa_1" xmlns="http://www.w3.org/2000/svg" xmlns:xlink="http://www.w3.org/1999/xlink" x="0px" y="0px"
	 viewBox="0 0 220 220" style="enable-background:new 0 0 220 220;" xml:space="preserve">
<style type="text/css">
	.st0{fill:#ffd600;}
</style>
<g>
	<path class="st0" d="M165.5,140.5c-3.9-1.9-8.4-1.4-11.8,1.3l-20.2,16.1c-1-3.8-4.4-6.6-8.5-6.6h-17.3l-2-2
		c-2.8-2.8-6.6-4.4-10.6-4.4h-5.9c-3.3,0-6.5,1.1-9.1,3.1l-9.2,7c-1.1-1.8-2.8-3.2-4.8-3.9c-2.3-0.8-4.8-0.6-7,0.4l-5.7,2.8
		c-2.2,1.1-3.8,2.9-4.6,5.2c-0.8,2.3-0.6,4.8,0.4,7l14.4,29.4c1.1,2.2,2.9,3.8,5.2,4.6c1,0.3,2,0.5,3,0.5c1.4,0,2.7-0.3,4-0.9
		l5.8-2.8c4-1.9,5.9-6.4,4.8-10.6h44.4c0.5,0,0.9-0.2,1.3-0.4l35.6-26.7c2.8-2.1,4.5-5.4,4.5-8.9
		C171.9,146.2,169.4,142.3,165.5,140.5z M79.5,193.3l-5.8,2.8c-1.2,0.6-2.5,0.6-3.7,0.2c-1.2-0.4-2.2-1.3-2.8-2.4l-14.4-29.4
		c-0.6-1.2-0.6-2.5-0.2-3.7c0.4-1.2,1.3-2.2,2.4-2.8l5.7-2.8c0.7-0.3,1.4-0.5,2.1-0.5c0.5,0,1.1,0.1,1.6,0.3
		c1.2,0.4,2.2,1.3,2.8,2.4l14.4,29.4C82.9,189.2,81.9,192.1,79.5,193.3z M164.8,156l-35,26.2H84.3l-11.5-23.5l9.8-7.5
		c1.9-1.4,4.2-2.2,6.5-2.2h5.9c2.9,0,5.6,1.1,7.6,3.1l2.7,2.7c0.4,0.4,1,0.6,1.5,0.6H125c2.5,0,4.5,2,4.5,4.5s-2,4.5-4.5,4.5h-22
		c-1.2,0-2.2,1-2.2,2.2c0,1.2,1,2.2,2.2,2.2h22c3.5,0,6.5-2.1,8-5.1c0,0,0,0,0.1,0l23.4-18.6c2.1-1.7,4.8-2,7.3-0.8
		c2.4,1.2,3.9,3.5,3.9,6.2C167.6,152.7,166.5,154.7,164.8,156z"/>
	<path class="st0" d="M65.2,134.3h89.4c6.8,0,12.4-5.6,12.4-12.4V62.8c0-6.8-5.6-12.4-12.4-12.4h-13.5v-0.1
		c0-17.2-14-31.2-31.2-31.2c-17.2,0-31.2,14-31.2,31.2v0.1H65.2c-6.8,0-12.4,5.6-12.4,12.4v59.1C52.8,128.7,58.4,134.3,65.2,134.3z
		 M154.6,130H65.2c-4.4,0-8.1-3.6-8.1-8.1v-7.7h105.5v7.7C162.7,126.4,159.1,130,154.6,130z M83,50.3c0-14.8,12.1-26.9,26.9-26.9
		s26.9,12.1,26.9,26.9v0.1H83V50.3z M65.2,54.7h13.5v13c0,1.2,1,2.2,2.2,2.2s2.2-1,2.2-2.2v-13h53.8v13c0,1.2,1,2.2,2.2,2.2
		c1.2,0,2.2-1,2.2-2.2v-13h13.5c4.4,0,8.1,3.6,8.1,8.1v47.1H57.1V62.8C57.1,58.4,60.8,54.7,65.2,54.7z"/>
</g>
</svg>
