<?xml version="1.0" encoding="utf-8"?>
<!-- Generator: Adobe Illustrator 25.4.1, SVG Export Plug-In . SVG Version: 6.00 Build 0)  -->
<svg version="1.1" id="Warstwa_1" xmlns="http://www.w3.org/2000/svg" xmlns:xlink="http://www.w3.org/1999/xlink" x="0px" y="0px"
	 viewBox="0 0 220 220" style="enable-background:new 0 0 220 220;" xml:space="preserve">
<style type="text/css">
	.st0{fill:#ffd600;}
</style>
<g>
	<path class="st0" d="M177.9,42.5H42.1c-5.1,0-9.3,4.2-9.3,9.3v91.6c0,5.1,4.2,9.3,9.3,9.3h53.6c-1.2,4-4.5,12.6-13.6,21.2
		c-0.6,0.6-0.9,1.5-0.5,2.4c0.3,0.8,1.1,1.4,2,1.4h52.9c0.9,0,1.7-0.5,2-1.4c0.3-0.8,0.1-1.8-0.5-2.4c-9.1-8.5-12.4-17.1-13.6-21.2
		h53.6c5.1,0,9.3-4.2,9.3-9.3V51.8C187.3,46.6,183.1,42.5,177.9,42.5z M42.1,46.8h135.9c2.8,0,5,2.2,5,5v73.3H37.1V51.8
		C37.1,49,39.3,46.8,42.1,46.8z M131.3,173.2H88.7c7.9-8.8,10.6-17,11.5-20.6h19.7C120.7,156.2,123.4,164.4,131.3,173.2z
		 M177.9,148.3H42.1c-2.8,0-5-2.2-5-5v-14h145.9v14C182.9,146.1,180.7,148.3,177.9,148.3z"/>
	<path class="st0" d="M97.8,90.9h47c1.2,0,2.2-1,2.2-2.2s-1-2.2-2.2-2.2h-47c-1.2,0-2.2,1-2.2,2.2S96.6,90.9,97.8,90.9z"/>
	<path class="st0" d="M80.7,86.6h-3.8c-1.2,0-2.2,1-2.2,2.2s1,2.2,2.2,2.2h3.8c1.2,0,2.2-1,2.2-2.2S81.9,86.6,80.7,86.6z"/>
	<path class="st0" d="M97.8,108.6h47c1.2,0,2.2-1,2.2-2.2s-1-2.2-2.2-2.2h-47c-1.2,0-2.2,1-2.2,2.2S96.6,108.6,97.8,108.6z"/>
	<path class="st0" d="M80.7,104.3h-3.8c-1.2,0-2.2,1-2.2,2.2s1,2.2,2.2,2.2h3.8c1.2,0,2.2-1,2.2-2.2S81.9,104.3,80.7,104.3z"/>
	<path class="st0" d="M97.8,73.2h47c1.2,0,2.2-1,2.2-2.2s-1-2.2-2.2-2.2h-47c-1.2,0-2.2,1-2.2,2.2S96.6,73.2,97.8,73.2z"/>
	<path class="st0" d="M74.4,75.1c0.4,0.4,1,0.6,1.5,0.6s1.1-0.2,1.5-0.6l10.6-10.6c0.8-0.8,0.8-2.2,0-3.1c-0.8-0.8-2.2-0.8-3.1,0
		l-9.1,9.1L72.5,67c-0.8-0.8-2.2-0.8-3.1,0c-0.8,0.8-0.8,2.2,0,3.1L74.4,75.1z"/>
</g>
</svg>
