<?xml version="1.0" encoding="utf-8"?>
<!-- Generator: Adobe Illustrator 25.4.1, SVG Export Plug-In . SVG Version: 6.00 Build 0)  -->
<svg version="1.1" id="Warstwa_1" xmlns="http://www.w3.org/2000/svg" xmlns:xlink="http://www.w3.org/1999/xlink" x="0px" y="0px"
	 viewBox="0 0 220 220" style="enable-background:new 0 0 220 220;" xml:space="preserve">
<style type="text/css">
	.st0{fill:#ffd600;}
</style>
<g>
	<path class="st0" d="M20,130.2c-3.8,2.2-5.1,7.1-2.9,10.9c1.5,2.6,4.2,4,6.9,4c1.3,0,2.7-0.3,4-1.1c3.8-2.2,5.1-7.1,2.9-10.9
		C28.7,129.3,23.8,128,20,130.2z M25.8,140.3c-1.7,1-4,0.4-5-1.3c-1-1.7-0.4-4,1.3-5c1.7-1,4-0.4,5,1.3
		C28.1,137,27.5,139.3,25.8,140.3z"/>
	<path class="st0" d="M122.6,116.3c0.3,0.2,0.7,0.3,1.1,0.3c0.7,0,1.5-0.4,1.9-1.1l21.1-36.6c0.6-1,0.2-2.4-0.8-3
		c-1-0.6-2.4-0.2-3,0.8l-21.1,36.6C121.2,114.4,121.6,115.7,122.6,116.3z"/>
	<path class="st0" d="M144.6,129c0.3,0.2,0.7,0.3,1.1,0.3c0.7,0,1.5-0.4,1.9-1.1l21.1-36.6c0.6-1,0.2-2.4-0.8-3
		c-1-0.6-2.4-0.2-3,0.8L143.8,126C143.2,127.1,143.5,128.4,144.6,129z"/>
	<path class="st0" d="M111.7,110c0.3,0.2,0.7,0.3,1.1,0.3c0.7,0,1.5-0.4,1.9-1.1l21.1-36.6c0.6-1,0.2-2.4-0.8-3
		c-1-0.6-2.4-0.2-3,0.8L110.9,107C110.3,108,110.6,109.4,111.7,110z"/>
	<path class="st0" d="M133.6,122.6c0.3,0.2,0.7,0.3,1.1,0.3c0.7,0,1.5-0.4,1.9-1.1l21.1-36.6c0.6-1,0.2-2.4-0.8-3
		c-1-0.6-2.4-0.2-3,0.8l-21.1,36.6C132.2,120.7,132.6,122,133.6,122.6z"/>
	<path class="st0" d="M160.6,151.9c0.3,0.2,0.7,0.3,1.1,0.3c0.7,0,1.5-0.4,1.9-1.1l27-46.9c0.6-1,0.2-2.4-0.8-3
		c-1-0.6-2.4-0.2-3,0.8l-27,46.9C159.2,150,159.6,151.3,160.6,151.9z"/>
	<path class="st0" d="M83.8,107.5c0.3,0.2,0.7,0.3,1.1,0.3c0.7,0,1.5-0.4,1.9-1.1l27.1-46.9c0.6-1,0.2-2.4-0.8-3s-2.4-0.2-3,0.8
		L83,104.6C82.4,105.6,82.8,106.9,83.8,107.5z"/>
	<path class="st0" d="M94.8,113.9c0.3,0.2,0.7,0.3,1.1,0.3c0.7,0,1.5-0.4,1.9-1.1l27-46.9c0.6-1,0.2-2.4-0.8-3s-2.4-0.2-3,0.8
		l-27,46.9C93.4,111.9,93.7,113.3,94.8,113.9z"/>
	<path class="st0" d="M155.6,135.3c0.3,0.2,0.7,0.3,1.1,0.3c0.7,0,1.5-0.4,1.9-1.1l21.1-36.6c0.6-1,0.2-2.4-0.8-3
		c-1-0.6-2.4-0.2-3,0.8l-21.1,36.6C154.2,133.4,154.5,134.7,155.6,135.3z"/>
	<path class="st0" d="M119.2,122.3c-1-0.6-2.4-0.2-3,0.8l-0.3,0.5c-0.6,1-0.2,2.4,0.8,3c0.3,0.2,0.7,0.3,1.1,0.3
		c0.7,0,1.5-0.4,1.9-1.1l0.3-0.5C120.6,124.2,120.2,122.9,119.2,122.3z"/>
	<path class="st0" d="M141.1,134.9c-1-0.6-2.4-0.2-3,0.8l-0.3,0.5c-0.6,1-0.2,2.4,0.8,3c0.3,0.2,0.7,0.3,1.1,0.3
		c0.7,0,1.5-0.4,1.9-1.1l0.3-0.5C142.5,136.9,142.2,135.5,141.1,134.9z"/>
	<path class="st0" d="M108.2,115.9c-1-0.6-2.4-0.2-3,0.8l-0.3,0.5c-0.6,1-0.2,2.4,0.8,3c0.3,0.2,0.7,0.3,1.1,0.3
		c0.7,0,1.5-0.4,1.9-1.1l0.3-0.5C109.6,117.8,109.2,116.5,108.2,115.9z"/>
	<path class="st0" d="M130.2,128.6c-1-0.6-2.4-0.2-3,0.8l-0.3,0.5c-0.6,1-0.2,2.4,0.8,3c0.3,0.2,0.7,0.3,1.1,0.3
		c0.7,0,1.5-0.4,1.9-1.1l0.3-0.5C131.6,130.5,131.2,129.2,130.2,128.6z"/>
	<path class="st0" d="M152.1,141.3c-1-0.6-2.4-0.2-3,0.8l-0.3,0.5c-0.6,1-0.2,2.4,0.8,3c0.3,0.2,0.7,0.3,1.1,0.3
		c0.7,0,1.5-0.4,1.9-1.1l0.3-0.5C153.5,143.2,153.1,141.9,152.1,141.3z"/>
	<path class="st0" d="M70.9,168.8c0,4.4,3.6,8,8,8c4.4,0,8-3.6,8-8c0-4.4-3.6-8-8-8C74.5,160.8,70.9,164.4,70.9,168.8z M78.9,165.2
		c2,0,3.6,1.6,3.6,3.6c0,2-1.6,3.6-3.6,3.6s-3.7-1.6-3.7-3.6C75.2,166.8,76.9,165.2,78.9,165.2z"/>
	<path class="st0" d="M212.8,94.5L107.5,33.7c-0.5-0.3-1.1-0.4-1.6-0.2c-0.6,0.1-1,0.5-1.3,1L75,85.6V75.4c0-0.9-0.6-1.7-1.4-2
		c-0.8-0.3-1.8-0.1-2.4,0.6c-10.2,11.8-15.7,31.4-14.9,49L41,131.8c-0.4-1.2-0.9-2.4-1.6-3.6c-4.9-8.5-15.8-11.4-24.3-6.5
		c-8.5,4.9-11.4,15.8-6.5,24.3c2.4,4.1,6.2,7.1,10.8,8.3c1.5,0.4,3.1,0.6,4.6,0.6c3.1,0,6.1-0.8,8.9-2.4l21-12.2
		c1.7-0.1,3.4-0.4,5.2-0.8c0.6,1.7,1.2,3.4,1.9,4.9v24.3c0,9.8,8,17.8,17.8,17.8c9.8,0,17.8-8,17.8-17.8c0-9.8-8-17.8-17.8-17.8
		c-1.3,0-2.6,0.1-3.9,0.4v-17.7c3.2-1.7,6.3-3.6,9.4-5.8l81.8,47.2c0.3,0.2,0.7,0.3,1.1,0.3c0.2,0,0.4,0,0.6-0.1
		c0.6-0.1,1-0.5,1.3-1l44.4-76.9C214.1,96.4,213.8,95,212.8,94.5z M53.1,136.1c-0.3,0-0.6,0.1-0.9,0.3l-21.5,12.4
		c-3.1,1.8-6.8,2.3-10.2,1.3c-3.5-0.9-6.4-3.2-8.2-6.3c-1.8-3.1-2.3-6.8-1.3-10.2c0.9-3.5,3.2-6.4,6.3-8.2
		c6.4-3.7,14.7-1.5,18.4,4.9c0.9,1.6,1.5,3.3,1.7,5c0.1,0.7,0.5,1.3,1.2,1.7c0.6,0.3,1.4,0.3,2-0.1l16-9.3c0.3,2.6,0.7,5.2,1.3,7.7
		C56.3,135.7,54.7,136,53.1,136.1z M78.9,155.3c7.4,0,13.5,6.1,13.5,13.5c0,7.4-6.1,13.5-13.5,13.5c-7.4,0-13.5-6.1-13.5-13.5V144
		c0-0.3-0.1-0.6-0.2-0.9c-8-16.5-5.1-44.3,5.5-61.2v72.4c0,0.7,0.4,1.4,1,1.8c0.6,0.4,1.4,0.5,2,0.2
		C75.3,155.7,77.1,155.3,78.9,155.3z M75,128.8v-6.3l5.2,3C78.5,126.7,76.8,127.8,75,128.8z M166.5,170.3l-80.7-46.6
		c-0.3-0.2-0.6-0.4-0.9-0.5l-9.9-5.7V94.2l32.2-55.7l101.6,58.6L166.5,170.3z"/>
</g>
</svg>
