<?xml version="1.0" encoding="utf-8"?>
<!-- Generator: Adobe Illustrator 25.4.1, SVG Export Plug-In . SVG Version: 6.00 Build 0)  -->
<svg version="1.1" id="Warstwa_1" xmlns="http://www.w3.org/2000/svg" xmlns:xlink="http://www.w3.org/1999/xlink" x="0px" y="0px"
	 viewBox="0 0 220 220" style="enable-background:new 0 0 220 220;" xml:space="preserve">
<style type="text/css">
	.st0{fill:#ffd600;}
</style>
<g>
	<path class="st0" d="M175,65.1H160c4.3-3.3,6.7-8.1,6.7-12.7c0-3.7-1.5-7-4.2-9.3c-2.9-2.5-7.2-3.9-12.4-3.9
		c-14.7,0-24,10.5-30.8,18.1c-3.5,4-6.9,7.8-9.2,7.8c-2.3,0-5.7-3.8-9.2-7.8C94,49.7,84.7,39.2,70,39.2c-5.2,0-9.5,1.3-12.4,3.9
		c-2.7,2.3-4.2,5.6-4.2,9.3c0,4.6,2.4,9.4,6.7,12.7H45c-1.2,0-2.2,1-2.2,2.2v23.7c0,1.2,1,2.2,2.2,2.2h7.1v85.5c0,1.2,1,2.2,2.2,2.2
		h40.5h30.3h40.5c1.2,0,2.2-1,2.2-2.2V93.1h7.1c1.2,0,2.2-1,2.2-2.2V67.2C177.1,66,176.1,65.1,175,65.1z M122.5,60.2
		c6.6-7.4,14.7-16.6,27.5-16.6c7.6,0,12.3,3.4,12.3,8.8c0,3-1.5,6.1-4,8.5c-2.1,1.9-5.7,4.2-11.6,4.2h-21.6h-7.2
		C119.4,63.7,120.9,62,122.5,60.2z M57.7,52.4c0-5.4,4.7-8.8,12.3-8.8c12.8,0,21,9.2,27.5,16.6c1.6,1.8,3.1,3.5,4.5,4.9h-7.2H73.2
		C63.6,65.1,57.7,58.5,57.7,52.4z M47.2,69.4h26h19.4v19.4H54.3h-7.1V69.4z M56.5,93.1h36.2v83.4H56.5V93.1z M97,90.9V69.4h13h13
		v21.5v85.5H97V90.9z M163.5,176.5h-36.2V93.1h36.2V176.5z M172.8,88.8h-7.1h-38.4V69.4h19.4h26V88.8z"/>
</g>
</svg>
